<?xml version="1.0" encoding="UTF-8" standalone="no"?>
<svg xmlns="http://www.w3.org/2000/svg" xmlns:xlink="http://www.w3.org/1999/xlink"
   width="140px"
   height="140px"
   id="svg3613"
   version="1.1">
  <defs
     id="defs3615" />
  <g id="layer1">
    <g
       transform="matrix(0.92086425,0,0,0.92086425,-333.37024,-5.391957)"
       id="g4100">
      <path
         d="m 438.26125,8.04375 c -41.68375,0 -75.485,33.795 -75.485,75.485 0,33.35125 21.62875,61.64625 51.62125,71.6275 3.7725,0.69875 5.1575,-1.6375 5.1575,-3.63125 0,-1.8 -0.07,-7.74625 -0.1025,-14.05375 -21,4.56625 -25.43125,-8.90625 -25.43125,-8.90625 C 390.5875,119.84 385.64,117.52 385.64,117.52 c -6.84875,-4.685 0.51625,-4.58875 0.51625,-4.58875 7.58,0.53125 11.57125,7.78 11.57125,7.78 6.7325,11.53875 17.65875,8.2025 21.96625,6.27375 0.6775,-4.87875 2.63375,-8.21 4.7925,-10.09375 C 407.72,114.9825 390.095,108.51 390.095,79.58625 c 0,-8.24125 2.94875,-14.975 7.7775,-20.26125 -0.78375,-1.9025 -3.3675,-9.57875 0.73125,-19.97625 0,0 6.33875,-2.02875 20.76375,7.7375 6.02125,-1.6725 12.47875,-2.51125 18.89375,-2.54 6.415,0.02875 12.8775,0.8675 18.91,2.54 14.4075,-9.76625 20.7375,-7.7375 20.7375,-7.7375 4.10875,10.3975 1.52375,18.07375 0.74,19.97625 4.84,5.28625 7.76875,12.02 7.76875,20.26125 0,28.9925 -17.65875,35.37625 -34.4675,37.245 2.7075,2.3425 5.12,6.93625 5.12,13.97875 0,10.1 -0.0875,18.22875 -0.0875,20.715 0,2.00875 1.35875,4.3625 5.185,3.62125 29.97625,-9.9925 51.5775,-38.2775 51.5775,-71.6175 0,-41.69 -33.79625,-75.485 -75.48375,-75.485"
         style="fill:#1b1817;fill-opacity:1;fill-rule:evenodd;stroke:none"
         id="path26" />
      <path
         d="m 391.36625,116.42375 c -0.16625,0.37625 -0.75625,0.4875 -1.29375,0.23 -0.5475,-0.24625 -0.855,-0.7575 -0.6775,-1.13375 0.1625,-0.385 0.75375,-0.4925 1.3,-0.235 0.54875,0.24625 0.86125,0.7625 0.67125,1.13875 l 0,0"
         style="fill:#1b1817;fill-opacity:1;fill-rule:nonzero;stroke:none"
         id="path28" />
      <path
         d="m 394.42375,119.83375 c -0.36,0.33375 -1.06375,0.17875 -1.54125,-0.34875 -0.49375,-0.52625 -0.58625,-1.23 -0.22125,-1.56875 0.37125,-0.3325 1.05375,-0.17625 1.54875,0.34875 0.49375,0.5325 0.59,1.23125 0.21375,1.56875 l 0,0"
         style="fill:#1b1817;fill-opacity:1;fill-rule:nonzero;stroke:none"
         id="path30" />
      <path
         d="m 397.4,124.18125 c -0.4625,0.32125 -1.21875,0.02 -1.68625,-0.65125 -0.4625,-0.67125 -0.4625,-1.47625 0.01,-1.79875 0.46875,-0.3225 1.21375,-0.0312 1.6875,0.63375 0.46125,0.6825 0.46125,1.4875 -0.0113,1.81625 l 0,0"
         style="fill:#1b1817;fill-opacity:1;fill-rule:nonzero;stroke:none"
         id="path32" />
      <path
         d="m 401.4775,128.38125 c -0.41375,0.45625 -1.295,0.33375 -1.94,-0.28875 -0.66,-0.60875 -0.84375,-1.4725 -0.42875,-1.92875 0.41875,-0.4575 1.305,-0.32875 1.955,0.28875 0.655,0.6075 0.855,1.4775 0.41375,1.92875 l 0,0"
         style="fill:#1b1817;fill-opacity:1;fill-rule:nonzero;stroke:none"
         id="path34" />
      <path
         d="m 407.1025,130.82 c -0.1825,0.59125 -1.03125,0.86 -1.88625,0.60875 -0.85375,-0.25875 -1.4125,-0.95125 -1.24,-1.54875 0.1775,-0.595 1.03,-0.875 1.89125,-0.60625 0.8525,0.2575 1.4125,0.945 1.235,1.54625 l 0,0"
         style="fill:#1b1817;fill-opacity:1;fill-rule:nonzero;stroke:none"
         id="path36" />
      <path
         d="m 413.28,131.2725 c 0.0213,0.6225 -0.70375,1.13875 -1.60125,1.15 -0.9025,0.02 -1.6325,-0.48375 -1.6425,-1.09625 0,-0.62875 0.70875,-1.14 1.61125,-1.155 0.8975,-0.0175 1.6325,0.4825 1.6325,1.10125 l 0,0"
         style="fill:#1b1817;fill-opacity:1;fill-rule:nonzero;stroke:none"
         id="path38" />
      <path
         d="m 419.02875,130.29375 c 0.1075,0.6075 -0.51625,1.23125 -1.4075,1.3975 -0.87625,0.16 -1.6875,-0.215 -1.79875,-0.8175 -0.10875,-0.6225 0.52625,-1.24625 1.40125,-1.4075 0.8925,-0.155 1.69125,0.21 1.805,0.8275 l 0,0"
         style="fill:#1b1817;fill-opacity:1;fill-rule:nonzero;stroke:none"
         id="path40" />
    </g>
  </g>
</svg>