<?xml version="1.0" encoding="UTF-8" standalone="no"?>
<!-- Created with Inkscape (http://www.inkscape.org/) -->

<svg
   xmlns:dc="http://purl.org/dc/elements/1.1/"
   xmlns:cc="http://creativecommons.org/ns#"
   xmlns:rdf="http://www.w3.org/1999/02/22-rdf-syntax-ns#"
   xmlns:svg="http://www.w3.org/2000/svg"
   xmlns="http://www.w3.org/2000/svg"
   xmlns:sodipodi="http://sodipodi.sourceforge.net/DTD/sodipodi-0.dtd"
   xmlns:inkscape="http://www.inkscape.org/namespaces/inkscape"
   width="140"
   height="140"
   id="svg3769"
   version="1.1"
   inkscape:version="0.48.4 r9939"
   sodipodi:docname="ie.svg">
  <defs
     id="defs3771" />
  <sodipodi:namedview
     id="base"
     pagecolor="#ffffff"
     bordercolor="#666666"
     borderopacity="1.0"
     inkscape:pageopacity="0.0"
     inkscape:pageshadow="2"
     inkscape:zoom="1.4"
     inkscape:cx="60.605349"
     inkscape:cy="64.323713"
     inkscape:document-units="px"
     inkscape:current-layer="layer1"
     showgrid="false"
     fit-margin-top="4"
     fit-margin-left="4"
     fit-margin-right="4"
     fit-margin-bottom="4"
     inkscape:window-width="1600"
     inkscape:window-height="838"
     inkscape:window-x="-8"
     inkscape:window-y="-8"
     inkscape:window-maximized="1" />
  <metadata
     id="metadata3774">
    <rdf:RDF>
      <cc:Work
         rdf:about="">
        <dc:format>image/svg+xml</dc:format>
        <dc:type
           rdf:resource="http://purl.org/dc/dcmitype/StillImage" />
        <dc:title />
      </cc:Work>
    </rdf:RDF>
  </metadata>
  <g
     inkscape:label="Layer 1"
     inkscape:groupmode="layer"
     id="layer1"
     transform="translate(-314.39464,-274.3971)">
    <path
       id="svg"
       d="m 455.17679,346.97215 c 0,-11.09545 -2.86868,-21.51934 -7.89917,-30.57722 21.44218,-48.52821 -22.97558,-41.42027 -25.44865,-40.93638 -9.41034,1.8414 -18.11642,4.7977 -26.14702,8.54522 -1.18422,-0.0667 -2.37564,-0.10331 -3.5762,-0.10331 -29.9704,0 -55.05745,20.90401 -61.47813,48.92708 15.79636,-17.72146 26.85127,-24.8719 33.4714,-27.73339 -1.05671,0.94424 -2.09119,1.89894 -3.10866,2.86083 -0.33872,0.31976 -0.66502,0.6441 -0.99917,0.96582 -0.6709,0.6454 -1.3405,1.29146 -1.99441,1.9434 -0.38907,0.38777 -0.76768,0.7788 -1.15087,1.16918 -0.58001,0.59048 -1.15872,1.1803 -1.725,1.77405 -0.40215,0.42177 -0.79449,0.84484 -1.18945,1.26726 -0.52901,0.56629 -1.05475,1.13322 -1.57068,1.70212 -0.40084,0.44204 -0.79515,0.88408 -1.1888,1.32742 -0.48912,0.55059 -0.97366,1.10118 -1.45166,1.65307 -0.39627,0.45774 -0.78927,0.91547 -1.17769,1.37386 -0.45315,0.53489 -0.90042,1.06978 -1.34311,1.60468 -0.39169,0.47342 -0.78207,0.9462 -1.16526,1.41897 -0.41458,0.51135 -0.82,1.02205 -1.22477,1.5321 -0.39234,0.49435 -0.78468,0.98805 -1.16787,1.48175 -0.36488,0.47015 -0.71929,0.93835 -1.07633,1.4072 -0.4028,0.52966 -0.80888,1.05932 -1.20122,1.58637 -0.28052,0.3773 -0.54993,0.75068 -0.82522,1.12668 -2.49203,3.4003 -4.76893,6.73521 -6.82546,9.93869 -0.005,0.008 -0.0105,0.0157 -0.015,0.0235 -0.54143,0.84354 -1.0639,1.67465 -1.57591,2.49857 -0.0275,0.0445 -0.0562,0.0896 -0.0837,0.1347 -0.51266,0.82719 -1.00766,1.64 -1.49025,2.4443 -0.017,0.0281 -0.0346,0.0569 -0.0516,0.085 -1.29735,2.16507 -2.50054,4.25234 -3.58405,6.21601 -5.68047,10.29442 -8.44583,17.48671 -8.5655,17.91371 -17.9379,64.12971 38.04677,37.04826 45.85897,33.00583 8.41183,4.15556 17.88167,6.49457 27.89949,6.49457 27.42475,0 50.75802,-17.50567 59.44317,-41.95189 h -33.13987 c -4.90363,8.28432 -14.34405,13.89547 -25.18971,13.89547 -15.89053,0 -28.77179,-12.03968 -28.77179,-26.89182 h 90.21004 c 0.34199,-2.66008 0.5192,-5.37117 0.5192,-8.12345 z m -11.78205,-62.06599 c 5.43133,3.66579 9.78764,9.42276 2.30632,28.81037 -7.1753,-11.53945 -17.9706,-20.59144 -30.80152,-25.567 5.83676,-2.81899 20.29131,-8.78129 28.4952,-3.24337 z M 327.97015,403.42045 c -4.42366,-4.53679 -5.20573,-15.58647 4.55575,-35.72149 4.92652,14.16422 14.75731,26.03259 27.46399,33.56491 -6.31934,3.47812 -23.09591,11.30928 -32.01974,2.15658 z m 36.33812,-65.57223 c 0.50416,-14.43494 13.06697,-25.9927 28.50238,-25.9927 15.43476,0 27.99823,11.55776 28.50239,25.9927 h -57.00477 z"
       style="fill:#1ebbee;fill-opacity:1"
       inkscape:connector-curvature="0" />
  </g>
</svg>
